<?xml version="1.0" encoding="UTF-8" standalone="no"?>
<!-- Created with Inkscape (http://www.inkscape.org/) -->

<svg
   width="132.54434mm"
   height="175.41748mm"
   viewBox="0 0 132.54434 175.41748"
   version="1.1"
   id="svg1"
   xmlns="http://www.w3.org/2000/svg"
   xmlns:svg="http://www.w3.org/2000/svg">
  <defs
     id="defs1" />
  <g
     id="layer1"
     transform="translate(-4.8274722,-45.184091)">
    <path
       d="m 60.383392,47.536393 q 4.434312,0.369526 7.575283,3.325734 3.140971,2.956208 3.140971,7.39052 V 95.574773 H 49.667138 V 58.252647 q 0,-4.434312 3.140971,-7.39052 3.140971,-2.956208 7.575283,-3.325734 z M 17.703139,68.968901 q 0,-4.434312 3.140971,-7.575283 3.140971,-3.140971 7.575283,-3.140971 4.434312,0 7.575283,3.140971 3.140971,3.140971 3.140971,7.575283 V 95.574773 H 17.703139 Z m 64.112761,0 q 0,-4.434312 2.956208,-7.575283 2.956208,-3.140971 7.575283,-3.140971 4.434312,0 7.575283,3.140971 3.140966,3.140971 3.140966,7.575283 v 31.779239 q 0,4.43431 -3.140966,7.57528 -3.140971,3.14097 -7.575283,3.14097 -4.619075,0 -7.575283,-3.14097 -2.956208,-3.14097 -2.956208,-7.57528 z m 31.964,21.432508 q 0.18476,-4.434312 3.14097,-7.575283 2.95621,-3.140971 7.39052,-3.140971 4.43431,0 7.57528,3.140971 3.14097,3.140971 3.14097,7.575283 v 21.062981 q 0,4.43431 -3.14097,7.57528 -3.14097,3.14098 -7.57528,3.14098 -4.43431,0 -7.39052,-3.14098 -2.95621,-3.14097 -3.14097,-7.57528 z m -31.964,29.192551 v -0.36952 q 4.988601,2.95621 10.531491,2.95621 6.281942,0 11.824829,-3.69526 2.21716,6.28194 7.76005,10.34672 5.54289,4.06479 12.37912,4.06479 5.91242,0 10.71625,-2.95621 v 2.95621 q 0,12.56388 -5.72765,23.83443 -5.72765,11.27054 -15.52009,18.66106 v 32.14876 q 0,4.43431 -3.14097,7.57528 -3.14097,3.14098 -7.57529,3.14098 H 49.667138 q -4.434312,0 -7.39052,-3.14098 -2.956208,-3.14097 -3.140971,-7.57528 v -26.23634 q -8.683861,-3.69526 -15.704855,-10.71626 l -3.880023,-4.06478 Q 7.1716475,154.32941 7.1716475,136.59216 v -9.23815 q 0,-8.4991 6.2819425,-14.78104 6.281942,-6.28194 14.965803,-6.28194 H 57.79671 q 5.54289,0 9.422913,3.88002 3.880023,3.88002 3.880023,9.42291 0,5.54289 -3.880023,9.42292 -3.880023,3.88002 -9.422913,3.88002 H 39.135647 q -2.401919,0 -3.880023,1.4781 -1.478104,1.47811 -1.478104,3.88003 0,2.40192 1.478104,3.88002 1.478104,1.4781 3.880023,1.4781 H 57.79671 q 9.977202,0 16.998196,-7.02099 7.020994,-7.02099 7.020994,-16.9982 z"
       id="text1"
       style="font-size:184.763px;font-family:'0xProto Nerd Font';-inkscape-font-specification:'0xProto Nerd Font';fill:#00ff00;fill-rule:evenodd;stroke:#00ff00;stroke-width:4.68835"
       aria-label="" />
  </g>
</svg>
