<?xml version="1.0" encoding="UTF-8" standalone="no"?>
<!-- Created with Inkscape (http://www.inkscape.org/) -->

<svg
   width="196.60031mm"
   height="175.42232mm"
   viewBox="0 0 196.60031 175.42232"
   version="1.1"
   id="svg1"
   xmlns="http://www.w3.org/2000/svg"
   xmlns:svg="http://www.w3.org/2000/svg">
  <defs
     id="defs1" />
  <g
     id="layer1"
     transform="translate(-4.8274721,-45.179268)">
    <path
       d="m 111.00845,55.665965 v 3.325734 q 2.58669,0.369526 6.09718,1.478104 3.14097,0.739052 4.9886,3.69526 1.84763,2.956208 0.73906,6.281942 -0.73906,2.956208 -3.69526,4.619075 -2.95621,1.662867 -6.09718,0.923815 -6.65147,-1.84763 -9.97721,-1.84763 -4.064781,0 -6.4667,1.478104 -0.369526,0.369526 -1.293341,1.108578 -0.184763,0.369526 -0.184763,1.108578 v 0 q 0.369526,0.369526 1.108578,0.739052 2.586682,1.478104 9.053386,3.69526 h 0.36953 q 8.31433,2.586682 12.56388,5.173364 8.68386,5.54289 8.86862,14.781039 0.18477,10.71626 -8.86862,16.25915 -3.69526,2.21715 -7.20576,2.9562 v 3.32574 q 0,3.69526 -2.21715,5.91241 -2.21716,2.21716 -5.72766,2.21716 -3.510492,0 -5.727648,-2.21716 -2.217156,-2.21715 -2.217156,-5.91241 v -3.69526 q -4.619075,-1.10858 -8.499098,-2.58668 -1.478104,-0.36953 -2.032393,-0.73906 -3.140971,-1.10857 -4.619075,-4.06478 -1.478104,-2.95621 -0.554289,-5.91242 1.108578,-3.32573 4.064786,-4.80384 2.956208,-1.4781 6.097179,-0.36952 0.923815,0.36952 2.401919,0.73905 8.129575,2.58668 11.270545,2.95621 4.24955,0.36952 6.4667,-1.47811 0.18477,0 0.55429,-0.18476 0.36953,-0.18476 0.36953,-0.55429 l 0.18476,-0.36952 q 0.18476,0 0.18476,-1.10858 0,-0.73905 -1.29334,-1.84763 -1.84763,-1.108581 -9.05338,-3.325737 h -0.55429 q -8.499101,-2.586682 -12.194361,-4.803838 -8.868624,-5.54289 -8.868624,-14.78104 0,-10.346728 9.23815,-15.889618 3.140971,-1.84763 6.836231,-2.586682 v -3.69526 q 0,-3.325734 2.217156,-5.54289 2.217156,-2.217156 5.727648,-2.586682 3.5105,0.369526 5.72766,2.586682 2.21715,2.217156 2.21715,5.54289 z m 85.36051,103.836805 q 3.32573,4.43431 2.58668,9.9772 -0.73905,5.54289 -5.35812,8.86863 l -42.12597,31.04018 q -12.00959,8.86863 -26.9754,8.86863 H 71.099646 17.887902 q -4.434312,0 -7.575283,-3.14098 -3.1409715,-3.14097 -3.1409715,-7.57528 v -21.43251 q 0,-4.43431 3.1409715,-7.57528 3.140971,-3.14097 7.575283,-3.14097 H 30.08226 l 14.965803,-11.82483 q 11.455306,-9.23815 26.605872,-9.23815 h 26.051583 5.358122 21.43251 q 4.61908,0 7.57529,2.95621 2.9562,2.9562 2.9562,7.39052 0,4.43431 -2.9562,7.57528 -2.95621,3.14097 -7.57529,3.14097 h -21.43251 -5.358122 q -2.217156,0.36953 -3.69526,1.84763 -1.478104,1.4781 -1.478104,3.69526 0,2.21716 1.478104,3.69526 1.478104,1.4781 3.69526,1.4781 h 40.278332 l 39.90881,-29.19255 q 4.43431,-3.32573 9.79244,-2.58668 5.35813,0.73905 8.68386,5.17336 z M 71.653935,175.39239 h -0.369526 z"
       id="text1"
       style="font-size:184.763px;font-family:'0xProto Nerd Font';-inkscape-font-specification:'0xProto Nerd Font';fill:#ff0000;fill-rule:evenodd;stroke:#ff0000;stroke-width:4.68835"
       aria-label="" />
  </g>
</svg>
